<svg id="circuit-kw3chx62" height="272" width="700" viewBox="0 0 700 272" xmlns="http://www.w3.org/2000/svg" xmlns:svg="http://www.w3.org/2000/svg" style="background-color: #ffffff;"><defs><filter id="dropshadow" height="140%" width="140%"><feGaussianBlur in="SourceAlpha" stdDeviation="1"></feGaussianBlur> <feOffset dx="1" dy="2" result="offsetblur"></feOffset> <feMerge><feMergeNode></feMergeNode> <feMergeNode in="SourceGraphic"></feMergeNode></feMerge></filter> <linearGradient id="fixed-right-shadow"><stop offset="5%" stop-color="#ffffff" stop-opacity="0"></stop> <stop offset="95%" stop-color="#ffffff"></stop></linearGradient> <clipPath id="gates-area-kw3chx62"><rect x="211" y="0" width="650" height="272"></rect></clipPath></defs>  <g style=""><g><g transform="translate(50, 40)"><line x1="0" x2="640" y1="0" y2="0" fill="none" style="stroke: #e0e0e0; stroke-width: 1px; stroke-linecap: round;"></line></g><g transform="translate(50, 80)"><line x1="0" x2="640" y1="0" y2="0" fill="none" style="stroke: #e0e0e0; stroke-width: 1px; stroke-linecap: round;"></line></g><g transform="translate(50, 120)"><line x1="0" x2="640" y1="0" y2="0" fill="none" style="stroke: #e0e0e0; stroke-width: 1px; stroke-linecap: round;"></line></g></g><g><g transform="translate(50, 176)"><line x1="0" x2="640" y1="0" y2="0" fill="none" style="stroke: #e0e0e0; stroke-width: 1px; stroke-linecap: round;"></line></g><g transform="translate(50, 216)"><line x1="0" x2="640" y1="0" y2="0" fill="none" style="stroke: #e0e0e0; stroke-width: 1px; stroke-linecap: round;"></line></g></g>   <g selection="" style="font-family: &quot;IBM Plex Sans&quot;, sans-serif;"><g data-index="0" class="svg-gate gate">   <g transform="translate(68,160)"><rect width="32" height="32" style="fill: #a8a8a8;"></rect>    <g transform="translate(7, 7.5) scale(0.8)"><path fill-rule="evenodd" clip-rule="evenodd" d="M9.5 17.4304H11.5C13.1569 17.4304 14.5 16.0873 14.5 14.4304V6.43042C14.5 4.77357 13.1569 3.43042 11.5 3.43042H9.5C7.84315 3.43042 6.5 4.77357 6.5 6.43042V14.4304C6.5 16.0873 7.84315 17.4304 9.5 17.4304ZM8.5 6.43042C8.5 5.87814 8.94772 5.43042 9.5 5.43042H11.5C12.0523 5.43042 12.5 5.87814 12.5 6.43042V14.4304C12.5 14.9827 12.0523 15.4304 11.5 15.4304H9.5C8.94772 15.4304 8.5 14.9827 8.5 14.4304V6.43042Z" fill="#000000"></path> <path d="M19.3454 20.4304L17.5 19.5304L22.1907 10.4304L17.5 1.33042L19.3454 0.43042L24.5 10.4304L19.3454 20.4304V20.4304Z" fill="#000000"></path> <rect x="0.5" y="0.43042" width="2" height="20" fill="#000000"></rect></g></g> </g><g data-index="1" class="svg-gate gate">   <g transform="translate(68,200)"><rect width="32" height="32" style="fill: #a8a8a8;"></rect>    <g transform="translate(7, 7.5) scale(0.8)"><path fill-rule="evenodd" clip-rule="evenodd" d="M9.5 17.4304H11.5C13.1569 17.4304 14.5 16.0873 14.5 14.4304V6.43042C14.5 4.77357 13.1569 3.43042 11.5 3.43042H9.5C7.84315 3.43042 6.5 4.77357 6.5 6.43042V14.4304C6.5 16.0873 7.84315 17.4304 9.5 17.4304ZM8.5 6.43042C8.5 5.87814 8.94772 5.43042 9.5 5.43042H11.5C12.0523 5.43042 12.5 5.87814 12.5 6.43042V14.4304C12.5 14.9827 12.0523 15.4304 11.5 15.4304H9.5C8.94772 15.4304 8.5 14.9827 8.5 14.4304V6.43042Z" fill="#000000"></path> <path d="M19.3454 20.4304L17.5 19.5304L22.1907 10.4304L17.5 1.33042L19.3454 0.43042L24.5 10.4304L19.3454 20.4304V20.4304Z" fill="#000000"></path> <rect x="0.5" y="0.43042" width="2" height="20" fill="#000000"></rect></g></g> </g><g data-index="2" class="svg-gate gate">  <g class="control"><g class="control-line"><line x1="134" y1="120" x2="134" y2="216" style="stroke-width: 3px; stroke: #002d9c;"></line></g> <g class="control-dots"><g data-control-param="c" class="control-dot"><circle r="10" cx="134" cy="120" fill="transparent" stroke-width="1" stroke="transparent"></circle> <circle r="6" cx="134" cy="120" fill="#ffffff"></circle> <circle r="6" cx="134" cy="120" style="fill: #002d9c; opacity: 1;"></circle></g></g></g> <g transform="translate(118,200)"> <circle cx="16" cy="16" r="16" style="fill: #002d9c;"></circle>   <path slot="label" transform="translate(16, 16) scale(0.8)" d="M1.1-1.2v-9.4h-2.2v9.4h-8.8v2.4h8.8v9.4h2.2V1.2h8.8v-2.4H1.1z" fill="#ffffff"></path></g> </g><g data-index="3" class="svg-gate gate">  <g class="control"><g class="control-line"><line x1="184" y1="80" x2="184" y2="216" style="stroke-width: 3px; stroke: #002d9c;"></line></g> <g class="control-dots"><g data-control-param="c" class="control-dot"><circle r="10" cx="184" cy="80" fill="transparent" stroke-width="1" stroke="transparent"></circle> <circle r="6" cx="184" cy="80" fill="#ffffff"></circle> <circle r="6" cx="184" cy="80" style="fill: #002d9c; opacity: 1;"></circle></g></g></g> <g transform="translate(168,200)"> <circle cx="16" cy="16" r="16" style="fill: #002d9c;"></circle>   <path slot="label" transform="translate(16, 16) scale(0.8)" d="M1.1-1.2v-9.4h-2.2v9.4h-8.8v2.4h8.8v9.4h2.2V1.2h8.8v-2.4H1.1z" fill="#ffffff"></path></g> </g><g data-index="4" class="svg-gate gate">  <g class="control"><g class="control-line"><line x1="234" y1="176" x2="234" y2="216" style="stroke-width: 3px; stroke: #002d9c;"></line></g> <g class="control-dots"><g data-control-param="c" class="control-dot"><circle r="10" cx="234" cy="216" fill="transparent" stroke-width="1" stroke="transparent"></circle> <circle r="6" cx="234" cy="216" fill="#ffffff"></circle> <circle r="6" cx="234" cy="216" style="fill: #002d9c; opacity: 1;"></circle></g></g></g> <g transform="translate(218,160)"> <circle cx="16" cy="16" r="16" style="fill: #002d9c;"></circle>   <path slot="label" transform="translate(16, 16) scale(0.8)" d="M1.1-1.2v-9.4h-2.2v9.4h-8.8v2.4h8.8v9.4h2.2V1.2h8.8v-2.4H1.1z" fill="#ffffff"></path></g> </g><g data-index="5" class="svg-gate gate">  <g class="control"><g class="control-line"><line x1="284" y1="80" x2="284" y2="216" style="stroke-width: 3px; stroke: #002d9c;"></line></g> <g class="control-dots"><g data-control-param="a" class="control-dot"><circle r="10" cx="284" cy="80" fill="transparent" stroke-width="1" stroke="transparent"></circle> <circle r="6" cx="284" cy="80" fill="#ffffff"></circle> <circle r="6" cx="284" cy="80" style="fill: #002d9c; opacity: 1;"></circle></g><g data-control-param="b" class="control-dot"><circle r="10" cx="284" cy="176" fill="transparent" stroke-width="1" stroke="transparent"></circle> <circle r="6" cx="284" cy="176" fill="#ffffff"></circle> <circle r="6" cx="284" cy="176" style="fill: #002d9c; opacity: 1;"></circle></g></g></g> <g transform="translate(268,200)"> <circle cx="16" cy="16" r="16" style="fill: #002d9c;"></circle>   <path slot="label" transform="translate(16, 16) scale(0.8)" d="M1.1-1.2v-9.4h-2.2v9.4h-8.8v2.4h8.8v9.4h2.2V1.2h8.8v-2.4H1.1z" fill="#ffffff"></path></g> </g><g data-index="6" class="svg-gate gate">  <g class="control"><g class="control-line"><line x1="334" y1="176" x2="334" y2="216" style="stroke-width: 3px; stroke: #002d9c;"></line></g> <g class="control-dots"><g data-control-param="c" class="control-dot"><circle r="10" cx="334" cy="216" fill="transparent" stroke-width="1" stroke="transparent"></circle> <circle r="6" cx="334" cy="216" fill="#ffffff"></circle> <circle r="6" cx="334" cy="216" style="fill: #002d9c; opacity: 1;"></circle></g></g></g> <g transform="translate(318,160)"> <circle cx="16" cy="16" r="16" style="fill: #002d9c;"></circle>   <path slot="label" transform="translate(16, 16) scale(0.8)" d="M1.1-1.2v-9.4h-2.2v9.4h-8.8v2.4h8.8v9.4h2.2V1.2h8.8v-2.4H1.1z" fill="#ffffff"></path></g> </g><g data-index="7" class="svg-gate gate">   <g transform="translate(368,200)"> <circle cx="16" cy="16" r="16" style="fill: #002d9c;"></circle>   <path slot="label" transform="translate(16, 16) scale(0.8)" d="M1.1-1.2v-9.4h-2.2v9.4h-8.8v2.4h8.8v9.4h2.2V1.2h8.8v-2.4H1.1z" fill="#ffffff"></path></g> </g><g data-index="8" class="svg-gate gate">  <g class="control"><g class="control-line"><line x1="434" y1="40" x2="434" y2="216" style="stroke-width: 3px; stroke: #002d9c;"></line></g> <g class="control-dots"><g data-control-param="a" class="control-dot"><circle r="10" cx="434" cy="40" fill="transparent" stroke-width="1" stroke="transparent"></circle> <circle r="6" cx="434" cy="40" fill="#ffffff"></circle> <circle r="6" cx="434" cy="40" style="fill: #002d9c; opacity: 1;"></circle></g><g data-control-param="b" class="control-dot"><circle r="10" cx="434" cy="216" fill="transparent" stroke-width="1" stroke="transparent"></circle> <circle r="6" cx="434" cy="216" fill="#ffffff"></circle> <circle r="6" cx="434" cy="216" style="fill: #002d9c; opacity: 1;"></circle></g></g></g> <g transform="translate(418,160)"> <circle cx="16" cy="16" r="16" style="fill: #002d9c;"></circle>   <path slot="label" transform="translate(16, 16) scale(0.8)" d="M1.1-1.2v-9.4h-2.2v9.4h-8.8v2.4h8.8v9.4h2.2V1.2h8.8v-2.4H1.1z" fill="#ffffff"></path></g> </g><g data-index="9" class="svg-gate gate">   <g transform="translate(468,200)"> <circle cx="16" cy="16" r="16" style="fill: #002d9c;"></circle>   <path slot="label" transform="translate(16, 16) scale(0.8)" d="M1.1-1.2v-9.4h-2.2v9.4h-8.8v2.4h8.8v9.4h2.2V1.2h8.8v-2.4H1.1z" fill="#ffffff"></path></g> </g><g data-index="10" class="svg-gate gate">  <g class="control"><g class="control-line"><line x1="534" y1="176" x2="534" y2="216" style="stroke-width: 3px; stroke: #002d9c;"></line></g> <g class="control-dots"><g data-control-param="c" class="control-dot"><circle r="10" cx="534" cy="216" fill="transparent" stroke-width="1" stroke="transparent"></circle> <circle r="6" cx="534" cy="216" fill="#ffffff"></circle> <circle r="6" cx="534" cy="216" style="fill: #002d9c; opacity: 1;"></circle></g></g></g> <g transform="translate(518,160)"> <circle cx="16" cy="16" r="16" style="fill: #002d9c;"></circle>   <path slot="label" transform="translate(16, 16) scale(0.8)" d="M1.1-1.2v-9.4h-2.2v9.4h-8.8v2.4h8.8v9.4h2.2V1.2h8.8v-2.4H1.1z" fill="#ffffff"></path></g> </g><g data-index="11" class="svg-gate gate">  <g class="control"><g class="control-line"><line x1="584" y1="40" x2="584" y2="216" style="stroke-width: 3px; stroke: #002d9c;"></line></g> <g class="control-dots"><g data-control-param="a" class="control-dot"><circle r="10" cx="584" cy="40" fill="transparent" stroke-width="1" stroke="transparent"></circle> <circle r="6" cx="584" cy="40" fill="#ffffff"></circle> <circle r="6" cx="584" cy="40" style="fill: #002d9c; opacity: 1;"></circle></g><g data-control-param="b" class="control-dot"><circle r="10" cx="584" cy="176" fill="transparent" stroke-width="1" stroke="transparent"></circle> <circle r="6" cx="584" cy="176" fill="#ffffff"></circle> <circle r="6" cx="584" cy="176" style="fill: #002d9c; opacity: 1;"></circle></g></g></g> <g transform="translate(568,200)"> <circle cx="16" cy="16" r="16" style="fill: #002d9c;"></circle>   <path slot="label" transform="translate(16, 16) scale(0.8)" d="M1.1-1.2v-9.4h-2.2v9.4h-8.8v2.4h8.8v9.4h2.2V1.2h8.8v-2.4H1.1z" fill="#ffffff"></path></g> </g><g data-index="12" class="svg-gate gate">  <g class="control"><g class="control-line"><line x1="634" y1="176" x2="634" y2="216" style="stroke-width: 3px; stroke: #002d9c;"></line></g> <g class="control-dots"><g data-control-param="c" class="control-dot"><circle r="10" cx="634" cy="216" fill="transparent" stroke-width="1" stroke="transparent"></circle> <circle r="6" cx="634" cy="216" fill="#ffffff"></circle> <circle r="6" cx="634" cy="216" style="fill: #002d9c; opacity: 1;"></circle></g></g></g> <g transform="translate(618,160)"> <circle cx="16" cy="16" r="16" style="fill: #002d9c;"></circle>   <path slot="label" transform="translate(16, 16) scale(0.8)" d="M1.1-1.2v-9.4h-2.2v9.4h-8.8v2.4h8.8v9.4h2.2V1.2h8.8v-2.4H1.1z" fill="#ffffff"></path></g> </g></g> </g> <svg x="0" y="0" width="50" height="100%" class="fixedLabels"><g><svg x="24" y="28" width="25px" height="1em" class="registerLabel" style="overflow: visible;"><text font-family="'IBM Plex Mono'" font-weight="400" x="0" y="1em" style="fill: #6f6f6f;"><tspan font-size="14px">c</tspan> <tspan dy="2" dx="1" font-size="10px">0</tspan></text> </svg><svg x="24" y="68" width="25px" height="1em" class="registerLabel" style="overflow: visible;"><text font-family="'IBM Plex Mono'" font-weight="400" x="0" y="1em" style="fill: #6f6f6f;"><tspan font-size="14px">c</tspan> <tspan dy="2" dx="1" font-size="10px">1</tspan></text> </svg><svg x="24" y="108" width="25px" height="1em" class="registerLabel" style="overflow: visible;"><text font-family="'IBM Plex Mono'" font-weight="400" x="0" y="1em" style="fill: #6f6f6f;"><tspan font-size="14px">c</tspan> <tspan dy="2" dx="1" font-size="10px">2</tspan></text> </svg> </g><g><svg x="24" y="164" width="25px" height="1em" class="registerLabel" style="overflow: visible;"><text font-family="'IBM Plex Mono'" font-weight="400" x="0" y="1em" style="fill: #6f6f6f;"><tspan font-size="14px">q</tspan> <tspan dy="2" dx="1" font-size="10px">0</tspan></text> </svg><svg x="24" y="204" width="25px" height="1em" class="registerLabel" style="overflow: visible;"><text font-family="'IBM Plex Mono'" font-weight="400" x="0" y="1em" style="fill: #6f6f6f;"><tspan font-size="14px">q</tspan> <tspan dy="2" dx="1" font-size="10px">1</tspan></text> </svg> </g> </svg>  <g></g></svg>